<?xml version="1.0" encoding="utf-8" standalone="no"?>
<!DOCTYPE svg PUBLIC "-//W3C//DTD SVG 1.1//EN"
  "http://www.w3.org/Graphics/SVG/1.1/DTD/svg11.dtd">
<!-- Created with matplotlib (https://matplotlib.org/) -->
<svg height="338.4pt" version="1.1" viewBox="0 0 338.4 338.4" width="338.4pt" xmlns="http://www.w3.org/2000/svg" xmlns:xlink="http://www.w3.org/1999/xlink">
 <metadata>
  <rdf:RDF xmlns:cc="http://creativecommons.org/ns#" xmlns:dc="http://purl.org/dc/elements/1.1/" xmlns:rdf="http://www.w3.org/1999/02/22-rdf-syntax-ns#">
   <cc:Work>
    <dc:type rdf:resource="http://purl.org/dc/dcmitype/StillImage"/>
    <dc:date>2021-03-24T17:51:56.945573</dc:date>
    <dc:format>image/svg+xml</dc:format>
    <dc:creator>
     <cc:Agent>
      <dc:title>Matplotlib v3.3.4, https://matplotlib.org/</dc:title>
     </cc:Agent>
    </dc:creator>
   </cc:Work>
  </rdf:RDF>
 </metadata>
 <defs>
  <style type="text/css">*{stroke-linecap:butt;stroke-linejoin:round;}</style>
 </defs>
 <g id="figure_1">
  <g id="patch_1">
   <path d="M 0 338.4 
L 338.4 338.4 
L 338.4 0 
L 0 0 
z
" style="fill:#ffffff;"/>
  </g>
  <g id="patch_2">
   <path d="M 0 338.4 
L 338.4 338.4 
L 338.4 0 
L 0 0 
z
" style="fill:#ffffff;"/>
  </g>
  <g id="axes_1">
   <g id="line2d_1">
    <path clip-path="url(#p6afaa98ba2)" d="M -1 235.623831 
L 227.455618 279.720697 
" style="fill:none;stroke:#ffffff;stroke-linecap:square;stroke-width:1.5;"/>
   </g>
   <g id="line2d_2">
    <path clip-path="url(#p6afaa98ba2)" d="M -1 244.416683 
L 192.640677 199.470354 
" style="fill:none;stroke:#ffffff;stroke-linecap:square;stroke-width:1.5;"/>
   </g>
   <g id="line2d_3">
    <path clip-path="url(#p6afaa98ba2)" d="M 20.530069 296.260381 
L 16.641009 36.329316 
" style="fill:none;stroke:#ffffff;stroke-linecap:square;stroke-width:1.5;"/>
   </g>
   <g id="line2d_4">
    <path clip-path="url(#p6afaa98ba2)" d="M 139.00472 211.919904 
L 256.467084 231.857866 
" style="fill:none;stroke:#cccccc;stroke-dasharray:1.5,2.475;stroke-dashoffset:0;stroke-width:1.5;"/>
   </g>
   <g id="line2d_5">
    <path clip-path="url(#p6afaa98ba2)" d="M 139.510795 262.745447 
L 256.467084 231.857866 
" style="fill:none;stroke:#cccccc;stroke-dasharray:1.5,2.475;stroke-dashoffset:0;stroke-width:1.5;"/>
   </g>
   <g id="line2d_6">
    <path clip-path="url(#p6afaa98ba2)" d="M 256.467084 231.857866 
L 257.603522 90.217449 
" style="fill:none;stroke:#999999;stroke-dasharray:5.55,2.4;stroke-dashoffset:0;stroke-width:1.5;"/>
   </g>
   <g id="line2d_7">
    <path clip-path="url(#p6afaa98ba2)" d="M 19.682562 239.616012 
L 256.467084 231.857866 
" style="fill:none;stroke:#999999;stroke-dasharray:5.55,2.4;stroke-dashoffset:0;stroke-width:1.5;"/>
   </g>
   <g id="line2d_8">
    <path clip-path="url(#p6afaa98ba2)" d="M 118.580383 258.705426 
L 120.973607 258.065273 
L 123.258283 257.408698 
L 125.432449 256.73649 
L 127.494296 256.04945 
L 129.442167 255.348389 
L 131.274559 254.634128 
L 132.990121 253.907494 
L 134.587653 253.169321 
L 136.066107 252.420448 
L 137.424583 251.661719 
L 138.662331 250.893978 
L 139.778745 250.118071 
L 140.773362 249.334846 
L 141.645864 248.545146 
L 142.39607 247.749815 
L 143.023934 246.949692 
L 143.529546 246.145612 
L 143.913127 245.338404 
L 144.175024 244.528892 
L 144.315708 243.717891 
L 144.335772 242.906208 
L 144.235926 242.094644 
L 144.016994 241.283986 
L 143.679909 240.475014 
L 143.225714 239.668495 
L 142.65555 238.865185 
L 141.970662 238.065827 
L 141.172387 237.271153 
L 140.262156 236.481881 
L 139.241488 235.698714 
" style="fill:none;stroke:#2ca02c;stroke-linecap:square;stroke-width:1.5;"/>
   </g>
   <g id="line2d_9">
    <path clip-path="url(#p6afaa98ba2)" d="M 139.241488 235.698714 
L 139.22004 233.518968 
L 139.170301 231.339732 
L 139.092263 229.161511 
L 138.985927 226.984813 
L 138.851299 224.810144 
L 138.68839 222.638011 
L 138.497221 220.468922 
L 138.277816 218.303384 
L 138.030207 216.141903 
L 137.754432 213.984987 
L 137.450536 211.833142 
L 137.118571 209.686874 
L 136.758594 207.546689 
L 136.370669 205.413092 
L 135.954867 203.286587 
L 135.511265 201.167676 
L 135.039948 199.056863 
L 134.541004 196.954648 
L 134.014532 194.861531 
L 133.460633 192.77801 
L 132.879419 190.704583 
L 132.271005 188.641744 
L 131.635514 186.589988 
L 130.973076 184.549806 
L 130.283825 182.521688 
L 129.567905 180.506122 
L 128.825464 178.503594 
L 128.056657 176.514587 
L 127.261645 174.539581 
L 126.440596 172.579056 
" style="fill:none;stroke:#1f77b4;stroke-linecap:square;stroke-width:1.5;"/>
   </g>
   <g id="line2d_10">
    <path clip-path="url(#p6afaa98ba2)" d="M 19.682562 239.616012 
L 257.603522 90.217449 
" style="fill:none;stroke:#d62728;stroke-linecap:square;stroke-width:2;"/>
   </g>
   <g id="text_1">
    <!-- $x$ / Easting -->
    <g transform="translate(186.177119 303.390299)scale(0.1 -0.1)">
     <defs>
      <path d="M 60.015625 54.6875 
L 34.90625 27.875 
L 50.296875 0 
L 39.984375 0 
L 28.421875 21.6875 
L 8.296875 0 
L -2.59375 0 
L 24.3125 28.8125 
L 10.015625 54.6875 
L 20.3125 54.6875 
L 30.8125 34.90625 
L 49.125 54.6875 
z
" id="DejaVuSans-Oblique-120"/>
      <path id="DejaVuSans-32"/>
      <path d="M 25.390625 72.90625 
L 33.6875 72.90625 
L 8.296875 -9.28125 
L 0 -9.28125 
z
" id="DejaVuSans-47"/>
      <path d="M 9.8125 72.90625 
L 55.90625 72.90625 
L 55.90625 64.59375 
L 19.671875 64.59375 
L 19.671875 43.015625 
L 54.390625 43.015625 
L 54.390625 34.71875 
L 19.671875 34.71875 
L 19.671875 8.296875 
L 56.78125 8.296875 
L 56.78125 0 
L 9.8125 0 
z
" id="DejaVuSans-69"/>
      <path d="M 34.28125 27.484375 
Q 23.390625 27.484375 19.1875 25 
Q 14.984375 22.515625 14.984375 16.5 
Q 14.984375 11.71875 18.140625 8.90625 
Q 21.296875 6.109375 26.703125 6.109375 
Q 34.1875 6.109375 38.703125 11.40625 
Q 43.21875 16.703125 43.21875 25.484375 
L 43.21875 27.484375 
z
M 52.203125 31.203125 
L 52.203125 0 
L 43.21875 0 
L 43.21875 8.296875 
Q 40.140625 3.328125 35.546875 0.953125 
Q 30.953125 -1.421875 24.3125 -1.421875 
Q 15.921875 -1.421875 10.953125 3.296875 
Q 6 8.015625 6 15.921875 
Q 6 25.140625 12.171875 29.828125 
Q 18.359375 34.515625 30.609375 34.515625 
L 43.21875 34.515625 
L 43.21875 35.40625 
Q 43.21875 41.609375 39.140625 45 
Q 35.0625 48.390625 27.6875 48.390625 
Q 23 48.390625 18.546875 47.265625 
Q 14.109375 46.140625 10.015625 43.890625 
L 10.015625 52.203125 
Q 14.9375 54.109375 19.578125 55.046875 
Q 24.21875 56 28.609375 56 
Q 40.484375 56 46.34375 49.84375 
Q 52.203125 43.703125 52.203125 31.203125 
z
" id="DejaVuSans-97"/>
      <path d="M 44.28125 53.078125 
L 44.28125 44.578125 
Q 40.484375 46.53125 36.375 47.5 
Q 32.28125 48.484375 27.875 48.484375 
Q 21.1875 48.484375 17.84375 46.4375 
Q 14.5 44.390625 14.5 40.28125 
Q 14.5 37.15625 16.890625 35.375 
Q 19.28125 33.59375 26.515625 31.984375 
L 29.59375 31.296875 
Q 39.15625 29.25 43.1875 25.515625 
Q 47.21875 21.78125 47.21875 15.09375 
Q 47.21875 7.46875 41.1875 3.015625 
Q 35.15625 -1.421875 24.609375 -1.421875 
Q 20.21875 -1.421875 15.453125 -0.5625 
Q 10.6875 0.296875 5.421875 2 
L 5.421875 11.28125 
Q 10.40625 8.6875 15.234375 7.390625 
Q 20.0625 6.109375 24.8125 6.109375 
Q 31.15625 6.109375 34.5625 8.28125 
Q 37.984375 10.453125 37.984375 14.40625 
Q 37.984375 18.0625 35.515625 20.015625 
Q 33.0625 21.96875 24.703125 23.78125 
L 21.578125 24.515625 
Q 13.234375 26.265625 9.515625 29.90625 
Q 5.8125 33.546875 5.8125 39.890625 
Q 5.8125 47.609375 11.28125 51.796875 
Q 16.75 56 26.8125 56 
Q 31.78125 56 36.171875 55.265625 
Q 40.578125 54.546875 44.28125 53.078125 
z
" id="DejaVuSans-115"/>
      <path d="M 18.3125 70.21875 
L 18.3125 54.6875 
L 36.8125 54.6875 
L 36.8125 47.703125 
L 18.3125 47.703125 
L 18.3125 18.015625 
Q 18.3125 11.328125 20.140625 9.421875 
Q 21.96875 7.515625 27.59375 7.515625 
L 36.8125 7.515625 
L 36.8125 0 
L 27.59375 0 
Q 17.1875 0 13.234375 3.875 
Q 9.28125 7.765625 9.28125 18.015625 
L 9.28125 47.703125 
L 2.6875 47.703125 
L 2.6875 54.6875 
L 9.28125 54.6875 
L 9.28125 70.21875 
z
" id="DejaVuSans-116"/>
      <path d="M 9.421875 54.6875 
L 18.40625 54.6875 
L 18.40625 0 
L 9.421875 0 
z
M 9.421875 75.984375 
L 18.40625 75.984375 
L 18.40625 64.59375 
L 9.421875 64.59375 
z
" id="DejaVuSans-105"/>
      <path d="M 54.890625 33.015625 
L 54.890625 0 
L 45.90625 0 
L 45.90625 32.71875 
Q 45.90625 40.484375 42.875 44.328125 
Q 39.84375 48.1875 33.796875 48.1875 
Q 26.515625 48.1875 22.3125 43.546875 
Q 18.109375 38.921875 18.109375 30.90625 
L 18.109375 0 
L 9.078125 0 
L 9.078125 54.6875 
L 18.109375 54.6875 
L 18.109375 46.1875 
Q 21.34375 51.125 25.703125 53.5625 
Q 30.078125 56 35.796875 56 
Q 45.21875 56 50.046875 50.171875 
Q 54.890625 44.34375 54.890625 33.015625 
z
" id="DejaVuSans-110"/>
      <path d="M 45.40625 27.984375 
Q 45.40625 37.75 41.375 43.109375 
Q 37.359375 48.484375 30.078125 48.484375 
Q 22.859375 48.484375 18.828125 43.109375 
Q 14.796875 37.75 14.796875 27.984375 
Q 14.796875 18.265625 18.828125 12.890625 
Q 22.859375 7.515625 30.078125 7.515625 
Q 37.359375 7.515625 41.375 12.890625 
Q 45.40625 18.265625 45.40625 27.984375 
z
M 54.390625 6.78125 
Q 54.390625 -7.171875 48.1875 -13.984375 
Q 42 -20.796875 29.203125 -20.796875 
Q 24.46875 -20.796875 20.265625 -20.09375 
Q 16.0625 -19.390625 12.109375 -17.921875 
L 12.109375 -9.1875 
Q 16.0625 -11.328125 19.921875 -12.34375 
Q 23.78125 -13.375 27.78125 -13.375 
Q 36.625 -13.375 41.015625 -8.765625 
Q 45.40625 -4.15625 45.40625 5.171875 
L 45.40625 9.625 
Q 42.625 4.78125 38.28125 2.390625 
Q 33.9375 0 27.875 0 
Q 17.828125 0 11.671875 7.65625 
Q 5.515625 15.328125 5.515625 27.984375 
Q 5.515625 40.671875 11.671875 48.328125 
Q 17.828125 56 27.875 56 
Q 33.9375 56 38.28125 53.609375 
Q 42.625 51.21875 45.40625 46.390625 
L 45.40625 54.6875 
L 54.390625 54.6875 
z
" id="DejaVuSans-103"/>
     </defs>
     <use transform="translate(0 0.015625)" xlink:href="#DejaVuSans-Oblique-120"/>
     <use transform="translate(59.179688 0.015625)" xlink:href="#DejaVuSans-32"/>
     <use transform="translate(90.966797 0.015625)" xlink:href="#DejaVuSans-47"/>
     <use transform="translate(124.658203 0.015625)" xlink:href="#DejaVuSans-32"/>
     <use transform="translate(156.445312 0.015625)" xlink:href="#DejaVuSans-69"/>
     <use transform="translate(219.628906 0.015625)" xlink:href="#DejaVuSans-97"/>
     <use transform="translate(280.908203 0.015625)" xlink:href="#DejaVuSans-115"/>
     <use transform="translate(333.007812 0.015625)" xlink:href="#DejaVuSans-116"/>
     <use transform="translate(372.216797 0.015625)" xlink:href="#DejaVuSans-105"/>
     <use transform="translate(400 0.015625)" xlink:href="#DejaVuSans-110"/>
     <use transform="translate(463.378906 0.015625)" xlink:href="#DejaVuSans-103"/>
    </g>
   </g>
   <g id="text_2">
    <!-- $y$ / Northing -->
    <g transform="translate(179.584758 181.731348)scale(0.1 -0.1)">
     <defs>
      <path d="M 24.8125 -5.078125 
Q 18.5625 -15.578125 14.625 -18.1875 
Q 10.6875 -20.796875 4.59375 -20.796875 
L -2.484375 -20.796875 
L -0.984375 -13.28125 
L 4.203125 -13.28125 
Q 7.953125 -13.28125 10.59375 -11.234375 
Q 13.234375 -9.1875 16.5 -3.21875 
L 19.28125 2 
L 7.171875 54.6875 
L 16.703125 54.6875 
L 25.78125 12.796875 
L 50.875 54.6875 
L 60.296875 54.6875 
z
" id="DejaVuSans-Oblique-121"/>
      <path d="M 9.8125 72.90625 
L 23.09375 72.90625 
L 55.421875 11.921875 
L 55.421875 72.90625 
L 64.984375 72.90625 
L 64.984375 0 
L 51.703125 0 
L 19.390625 60.984375 
L 19.390625 0 
L 9.8125 0 
z
" id="DejaVuSans-78"/>
      <path d="M 30.609375 48.390625 
Q 23.390625 48.390625 19.1875 42.75 
Q 14.984375 37.109375 14.984375 27.296875 
Q 14.984375 17.484375 19.15625 11.84375 
Q 23.34375 6.203125 30.609375 6.203125 
Q 37.796875 6.203125 41.984375 11.859375 
Q 46.1875 17.53125 46.1875 27.296875 
Q 46.1875 37.015625 41.984375 42.703125 
Q 37.796875 48.390625 30.609375 48.390625 
z
M 30.609375 56 
Q 42.328125 56 49.015625 48.375 
Q 55.71875 40.765625 55.71875 27.296875 
Q 55.71875 13.875 49.015625 6.21875 
Q 42.328125 -1.421875 30.609375 -1.421875 
Q 18.84375 -1.421875 12.171875 6.21875 
Q 5.515625 13.875 5.515625 27.296875 
Q 5.515625 40.765625 12.171875 48.375 
Q 18.84375 56 30.609375 56 
z
" id="DejaVuSans-111"/>
      <path d="M 41.109375 46.296875 
Q 39.59375 47.171875 37.8125 47.578125 
Q 36.03125 48 33.890625 48 
Q 26.265625 48 22.1875 43.046875 
Q 18.109375 38.09375 18.109375 28.8125 
L 18.109375 0 
L 9.078125 0 
L 9.078125 54.6875 
L 18.109375 54.6875 
L 18.109375 46.1875 
Q 20.953125 51.171875 25.484375 53.578125 
Q 30.03125 56 36.53125 56 
Q 37.453125 56 38.578125 55.875 
Q 39.703125 55.765625 41.0625 55.515625 
z
" id="DejaVuSans-114"/>
      <path d="M 54.890625 33.015625 
L 54.890625 0 
L 45.90625 0 
L 45.90625 32.71875 
Q 45.90625 40.484375 42.875 44.328125 
Q 39.84375 48.1875 33.796875 48.1875 
Q 26.515625 48.1875 22.3125 43.546875 
Q 18.109375 38.921875 18.109375 30.90625 
L 18.109375 0 
L 9.078125 0 
L 9.078125 75.984375 
L 18.109375 75.984375 
L 18.109375 46.1875 
Q 21.34375 51.125 25.703125 53.5625 
Q 30.078125 56 35.796875 56 
Q 45.21875 56 50.046875 50.171875 
Q 54.890625 44.34375 54.890625 33.015625 
z
" id="DejaVuSans-104"/>
     </defs>
     <use transform="translate(0 0.015625)" xlink:href="#DejaVuSans-Oblique-121"/>
     <use transform="translate(59.179688 0.015625)" xlink:href="#DejaVuSans-32"/>
     <use transform="translate(90.966797 0.015625)" xlink:href="#DejaVuSans-47"/>
     <use transform="translate(124.658203 0.015625)" xlink:href="#DejaVuSans-32"/>
     <use transform="translate(156.445312 0.015625)" xlink:href="#DejaVuSans-78"/>
     <use transform="translate(231.25 0.015625)" xlink:href="#DejaVuSans-111"/>
     <use transform="translate(292.431641 0.015625)" xlink:href="#DejaVuSans-114"/>
     <use transform="translate(333.544922 0.015625)" xlink:href="#DejaVuSans-116"/>
     <use transform="translate(372.753906 0.015625)" xlink:href="#DejaVuSans-104"/>
     <use transform="translate(436.132812 0.015625)" xlink:href="#DejaVuSans-105"/>
     <use transform="translate(463.916016 0.015625)" xlink:href="#DejaVuSans-110"/>
     <use transform="translate(527.294922 0.015625)" xlink:href="#DejaVuSans-103"/>
    </g>
   </g>
   <g id="text_3">
    <!-- $z$ / Elevation -->
    <g transform="translate(17.522208 95.22554)scale(0.1 -0.1)">
     <defs>
      <path d="M 11.625 54.6875 
L 54.296875 54.6875 
L 52.6875 46.484375 
L 11.53125 7.171875 
L 45.515625 7.171875 
L 44.09375 0 
L -0.296875 0 
L 1.3125 8.203125 
L 42.484375 47.515625 
L 10.203125 47.515625 
z
" id="DejaVuSans-Oblique-122"/>
      <path d="M 9.421875 75.984375 
L 18.40625 75.984375 
L 18.40625 0 
L 9.421875 0 
z
" id="DejaVuSans-108"/>
      <path d="M 56.203125 29.59375 
L 56.203125 25.203125 
L 14.890625 25.203125 
Q 15.484375 15.921875 20.484375 11.0625 
Q 25.484375 6.203125 34.421875 6.203125 
Q 39.59375 6.203125 44.453125 7.46875 
Q 49.3125 8.734375 54.109375 11.28125 
L 54.109375 2.78125 
Q 49.265625 0.734375 44.1875 -0.34375 
Q 39.109375 -1.421875 33.890625 -1.421875 
Q 20.796875 -1.421875 13.15625 6.1875 
Q 5.515625 13.8125 5.515625 26.8125 
Q 5.515625 40.234375 12.765625 48.109375 
Q 20.015625 56 32.328125 56 
Q 43.359375 56 49.78125 48.890625 
Q 56.203125 41.796875 56.203125 29.59375 
z
M 47.21875 32.234375 
Q 47.125 39.59375 43.09375 43.984375 
Q 39.0625 48.390625 32.421875 48.390625 
Q 24.90625 48.390625 20.390625 44.140625 
Q 15.875 39.890625 15.1875 32.171875 
z
" id="DejaVuSans-101"/>
      <path d="M 2.984375 54.6875 
L 12.5 54.6875 
L 29.59375 8.796875 
L 46.6875 54.6875 
L 56.203125 54.6875 
L 35.6875 0 
L 23.484375 0 
z
" id="DejaVuSans-118"/>
     </defs>
     <use transform="translate(0 0.015625)" xlink:href="#DejaVuSans-Oblique-122"/>
     <use transform="translate(52.490234 0.015625)" xlink:href="#DejaVuSans-32"/>
     <use transform="translate(84.277344 0.015625)" xlink:href="#DejaVuSans-47"/>
     <use transform="translate(117.96875 0.015625)" xlink:href="#DejaVuSans-32"/>
     <use transform="translate(149.755859 0.015625)" xlink:href="#DejaVuSans-69"/>
     <use transform="translate(212.939453 0.015625)" xlink:href="#DejaVuSans-108"/>
     <use transform="translate(240.722656 0.015625)" xlink:href="#DejaVuSans-101"/>
     <use transform="translate(302.246094 0.015625)" xlink:href="#DejaVuSans-118"/>
     <use transform="translate(361.425781 0.015625)" xlink:href="#DejaVuSans-97"/>
     <use transform="translate(422.705078 0.015625)" xlink:href="#DejaVuSans-116"/>
     <use transform="translate(461.914062 0.015625)" xlink:href="#DejaVuSans-105"/>
     <use transform="translate(489.697266 0.015625)" xlink:href="#DejaVuSans-111"/>
     <use transform="translate(550.878906 0.015625)" xlink:href="#DejaVuSans-110"/>
    </g>
   </g>
   <g id="text_4">
    <!-- $\theta$ -->
    <g style="fill:#2ca02c;" transform="translate(152.358043 254.615693)scale(0.14 -0.14)">
     <defs>
      <path d="M 45.515625 34.671875 
L 14.453125 34.671875 
Q 12.359375 20.0625 14.5 13.875 
Q 17.1875 6.25 24.46875 6.25 
Q 31.78125 6.25 37.359375 13.921875 
Q 42.234375 20.65625 45.515625 34.671875 
z
M 47.015625 42.96875 
Q 48.34375 56.84375 46.625 61.71875 
Q 43.953125 69.4375 36.765625 69.4375 
Q 29.296875 69.4375 23.828125 61.8125 
Q 19.53125 55.671875 16.15625 42.96875 
z
M 38.1875 76.765625 
Q 49.90625 76.765625 54.59375 66.40625 
Q 59.28125 56.109375 55.71875 37.84375 
Q 52.203125 19.625 43.453125 9.28125 
Q 34.765625 -1.125 23.046875 -1.125 
Q 11.28125 -1.125 6.640625 9.28125 
Q 2 19.625 5.515625 37.84375 
Q 9.078125 56.109375 17.71875 66.40625 
Q 26.421875 76.765625 38.1875 76.765625 
z
" id="DejaVuSans-Oblique-952"/>
     </defs>
     <use transform="translate(0 0.234375)" xlink:href="#DejaVuSans-Oblique-952"/>
    </g>
   </g>
   <g id="text_5">
    <!-- $\varphi$ -->
    <g style="fill:#1f77b4;" transform="translate(141.634457 196.47442)scale(0.14 -0.14)">
     <defs>
      <path d="M 46.390625 47.40625 
Q 43.21875 47.40625 41.796875 40.328125 
L 35.296875 6.84375 
Q 39.890625 6.84375 45.5625 11.921875 
Q 50.6875 16.453125 52.734375 27.34375 
Q 54.640625 37.5 51.5625 42.96875 
Q 49.03125 47.40625 46.390625 47.40625 
z
M 47.859375 55.078125 
Q 54.890625 55.078125 59.671875 48.640625 
Q 64.796875 41.75 62.203125 27.34375 
Q 59.8125 14.109375 51.421875 6.25 
Q 43.5 -1.171875 33.734375 -1.171875 
L 29.9375 -20.796875 
L 21 -20.796875 
L 24.8125 -1.21875 
Q 15.046875 -1.21875 10.015625 6.25 
Q 4.828125 13.875 7.421875 27.296875 
Q 10.109375 41.265625 18.21875 48.390625 
Q 24.3125 53.71875 32.5625 55.078125 
L 31 47.125 
Q 27.59375 46 24.03125 42.1875 
Q 18.65625 36.578125 16.890625 27.296875 
Q 15.046875 17.4375 18.0625 11.8125 
Q 20.84375 6.78125 26.375 6.78125 
L 32.859375 40.328125 
Q 35.75 55.078125 47.859375 55.078125 
z
" id="DejaVuSans-Oblique-966"/>
     </defs>
     <use transform="translate(0 0.921875)" xlink:href="#DejaVuSans-Oblique-966"/>
    </g>
   </g>
   <g id="text_6">
    <!-- RHS coordinate system -->
    <g transform="translate(99.2025 52.2048)scale(0.12 -0.12)">
     <defs>
      <path d="M 44.390625 34.1875 
Q 47.5625 33.109375 50.5625 29.59375 
Q 53.5625 26.078125 56.59375 19.921875 
L 66.609375 0 
L 56 0 
L 46.6875 18.703125 
Q 43.0625 26.03125 39.671875 28.421875 
Q 36.28125 30.8125 30.421875 30.8125 
L 19.671875 30.8125 
L 19.671875 0 
L 9.8125 0 
L 9.8125 72.90625 
L 32.078125 72.90625 
Q 44.578125 72.90625 50.734375 67.671875 
Q 56.890625 62.453125 56.890625 51.90625 
Q 56.890625 45.015625 53.6875 40.46875 
Q 50.484375 35.9375 44.390625 34.1875 
z
M 19.671875 64.796875 
L 19.671875 38.921875 
L 32.078125 38.921875 
Q 39.203125 38.921875 42.84375 42.21875 
Q 46.484375 45.515625 46.484375 51.90625 
Q 46.484375 58.296875 42.84375 61.546875 
Q 39.203125 64.796875 32.078125 64.796875 
z
" id="DejaVuSans-82"/>
      <path d="M 9.8125 72.90625 
L 19.671875 72.90625 
L 19.671875 43.015625 
L 55.515625 43.015625 
L 55.515625 72.90625 
L 65.375 72.90625 
L 65.375 0 
L 55.515625 0 
L 55.515625 34.71875 
L 19.671875 34.71875 
L 19.671875 0 
L 9.8125 0 
z
" id="DejaVuSans-72"/>
      <path d="M 53.515625 70.515625 
L 53.515625 60.890625 
Q 47.90625 63.578125 42.921875 64.890625 
Q 37.9375 66.21875 33.296875 66.21875 
Q 25.25 66.21875 20.875 63.09375 
Q 16.5 59.96875 16.5 54.203125 
Q 16.5 49.359375 19.40625 46.890625 
Q 22.3125 44.4375 30.421875 42.921875 
L 36.375 41.703125 
Q 47.40625 39.59375 52.65625 34.296875 
Q 57.90625 29 57.90625 20.125 
Q 57.90625 9.515625 50.796875 4.046875 
Q 43.703125 -1.421875 29.984375 -1.421875 
Q 24.8125 -1.421875 18.96875 -0.25 
Q 13.140625 0.921875 6.890625 3.21875 
L 6.890625 13.375 
Q 12.890625 10.015625 18.65625 8.296875 
Q 24.421875 6.59375 29.984375 6.59375 
Q 38.421875 6.59375 43.015625 9.90625 
Q 47.609375 13.234375 47.609375 19.390625 
Q 47.609375 24.75 44.3125 27.78125 
Q 41.015625 30.8125 33.5 32.328125 
L 27.484375 33.5 
Q 16.453125 35.6875 11.515625 40.375 
Q 6.59375 45.0625 6.59375 53.421875 
Q 6.59375 63.09375 13.40625 68.65625 
Q 20.21875 74.21875 32.171875 74.21875 
Q 37.3125 74.21875 42.625 73.28125 
Q 47.953125 72.359375 53.515625 70.515625 
z
" id="DejaVuSans-83"/>
      <path d="M 48.78125 52.59375 
L 48.78125 44.1875 
Q 44.96875 46.296875 41.140625 47.34375 
Q 37.3125 48.390625 33.40625 48.390625 
Q 24.65625 48.390625 19.8125 42.84375 
Q 14.984375 37.3125 14.984375 27.296875 
Q 14.984375 17.28125 19.8125 11.734375 
Q 24.65625 6.203125 33.40625 6.203125 
Q 37.3125 6.203125 41.140625 7.25 
Q 44.96875 8.296875 48.78125 10.40625 
L 48.78125 2.09375 
Q 45.015625 0.34375 40.984375 -0.53125 
Q 36.96875 -1.421875 32.421875 -1.421875 
Q 20.0625 -1.421875 12.78125 6.34375 
Q 5.515625 14.109375 5.515625 27.296875 
Q 5.515625 40.671875 12.859375 48.328125 
Q 20.21875 56 33.015625 56 
Q 37.15625 56 41.109375 55.140625 
Q 45.0625 54.296875 48.78125 52.59375 
z
" id="DejaVuSans-99"/>
      <path d="M 45.40625 46.390625 
L 45.40625 75.984375 
L 54.390625 75.984375 
L 54.390625 0 
L 45.40625 0 
L 45.40625 8.203125 
Q 42.578125 3.328125 38.25 0.953125 
Q 33.9375 -1.421875 27.875 -1.421875 
Q 17.96875 -1.421875 11.734375 6.484375 
Q 5.515625 14.40625 5.515625 27.296875 
Q 5.515625 40.1875 11.734375 48.09375 
Q 17.96875 56 27.875 56 
Q 33.9375 56 38.25 53.625 
Q 42.578125 51.265625 45.40625 46.390625 
z
M 14.796875 27.296875 
Q 14.796875 17.390625 18.875 11.75 
Q 22.953125 6.109375 30.078125 6.109375 
Q 37.203125 6.109375 41.296875 11.75 
Q 45.40625 17.390625 45.40625 27.296875 
Q 45.40625 37.203125 41.296875 42.84375 
Q 37.203125 48.484375 30.078125 48.484375 
Q 22.953125 48.484375 18.875 42.84375 
Q 14.796875 37.203125 14.796875 27.296875 
z
" id="DejaVuSans-100"/>
      <path d="M 32.171875 -5.078125 
Q 28.375 -14.84375 24.75 -17.8125 
Q 21.140625 -20.796875 15.09375 -20.796875 
L 7.90625 -20.796875 
L 7.90625 -13.28125 
L 13.1875 -13.28125 
Q 16.890625 -13.28125 18.9375 -11.515625 
Q 21 -9.765625 23.484375 -3.21875 
L 25.09375 0.875 
L 2.984375 54.6875 
L 12.5 54.6875 
L 29.59375 11.921875 
L 46.6875 54.6875 
L 56.203125 54.6875 
z
" id="DejaVuSans-121"/>
      <path d="M 52 44.1875 
Q 55.375 50.25 60.0625 53.125 
Q 64.75 56 71.09375 56 
Q 79.640625 56 84.28125 50.015625 
Q 88.921875 44.046875 88.921875 33.015625 
L 88.921875 0 
L 79.890625 0 
L 79.890625 32.71875 
Q 79.890625 40.578125 77.09375 44.375 
Q 74.3125 48.1875 68.609375 48.1875 
Q 61.625 48.1875 57.5625 43.546875 
Q 53.515625 38.921875 53.515625 30.90625 
L 53.515625 0 
L 44.484375 0 
L 44.484375 32.71875 
Q 44.484375 40.625 41.703125 44.40625 
Q 38.921875 48.1875 33.109375 48.1875 
Q 26.21875 48.1875 22.15625 43.53125 
Q 18.109375 38.875 18.109375 30.90625 
L 18.109375 0 
L 9.078125 0 
L 9.078125 54.6875 
L 18.109375 54.6875 
L 18.109375 46.1875 
Q 21.1875 51.21875 25.484375 53.609375 
Q 29.78125 56 35.6875 56 
Q 41.65625 56 45.828125 52.96875 
Q 50 49.953125 52 44.1875 
z
" id="DejaVuSans-109"/>
     </defs>
     <use xlink:href="#DejaVuSans-82"/>
     <use x="69.482422" xlink:href="#DejaVuSans-72"/>
     <use x="144.677734" xlink:href="#DejaVuSans-83"/>
     <use x="208.154297" xlink:href="#DejaVuSans-32"/>
     <use x="239.941406" xlink:href="#DejaVuSans-99"/>
     <use x="294.921875" xlink:href="#DejaVuSans-111"/>
     <use x="356.103516" xlink:href="#DejaVuSans-111"/>
     <use x="417.285156" xlink:href="#DejaVuSans-114"/>
     <use x="456.648438" xlink:href="#DejaVuSans-100"/>
     <use x="520.125" xlink:href="#DejaVuSans-105"/>
     <use x="547.908203" xlink:href="#DejaVuSans-110"/>
     <use x="611.287109" xlink:href="#DejaVuSans-97"/>
     <use x="672.566406" xlink:href="#DejaVuSans-116"/>
     <use x="711.775391" xlink:href="#DejaVuSans-101"/>
     <use x="773.298828" xlink:href="#DejaVuSans-32"/>
     <use x="805.085938" xlink:href="#DejaVuSans-115"/>
     <use x="857.185547" xlink:href="#DejaVuSans-121"/>
     <use x="916.365234" xlink:href="#DejaVuSans-115"/>
     <use x="968.464844" xlink:href="#DejaVuSans-116"/>
     <use x="1007.673828" xlink:href="#DejaVuSans-101"/>
     <use x="1069.197266" xlink:href="#DejaVuSans-109"/>
    </g>
   </g>
   <g id="patch_3">
    <path clip-path="url(#p6afaa98ba2)" d="M -15.423196 232.839842 
Q 105.035964 256.091061 223.848468 279.024439 
" style="fill:none;stroke:#333333;stroke-linecap:round;stroke-width:1.5;"/>
    <path clip-path="url(#p6afaa98ba2)" d="M 216.751552 273.580748 
L 223.848468 279.024439 
L 215.235365 281.435758 
L 216.751552 273.580748 
z
" style="fill:#333333;stroke:#333333;stroke-linecap:round;stroke-width:1.5;"/>
   </g>
   <g id="patch_4">
    <path clip-path="url(#p6afaa98ba2)" d="M -11.045203 246.748295 
Q 89.823379 223.335485 189.058339 200.301858 
" style="fill:none;stroke:#333333;stroke-linecap:round;stroke-width:1.5;"/>
    <path clip-path="url(#p6afaa98ba2)" d="M 180.361104 198.214252 
L 189.058339 200.301858 
L 182.169913 206.007083 
L 180.361104 198.214252 
z
" style="fill:#333333;stroke:#333333;stroke-linecap:round;stroke-width:1.5;"/>
   </g>
   <g id="patch_5">
    <path clip-path="url(#p6afaa98ba2)" d="M 20.500191 294.263407 
Q 19.026172 195.74519 17.577242 98.903837 
" style="fill:none;stroke:#333333;stroke-linecap:round;stroke-width:1.5;"/>
    <path clip-path="url(#p6afaa98ba2)" d="M 13.697371 106.962783 
L 17.577242 98.903837 
L 21.696476 106.843101 
L 13.697371 106.962783 
z
" style="fill:#333333;stroke:#333333;stroke-linecap:round;stroke-width:1.5;"/>
   </g>
  </g>
 </g>
 <defs>
  <clipPath id="p6afaa98ba2">
   <rect height="338.4" width="338.4" x="0" y="0"/>
  </clipPath>
 </defs>
</svg>
