<?xml version="1.0" encoding="utf-8" standalone="no"?>
<!DOCTYPE svg PUBLIC "-//W3C//DTD SVG 1.1//EN"
  "http://www.w3.org/Graphics/SVG/1.1/DTD/svg11.dtd">
<svg xmlns:xlink="http://www.w3.org/1999/xlink" width="469.19952pt" height="353.99952pt" viewBox="0 0 469.19952 353.99952" xmlns="http://www.w3.org/2000/svg" version="1.1">
 <metadata>
  <rdf:RDF xmlns:dc="http://purl.org/dc/elements/1.1/" xmlns:cc="http://creativecommons.org/ns#" xmlns:rdf="http://www.w3.org/1999/02/22-rdf-syntax-ns#">
   <cc:Work>
    <dc:type rdf:resource="http://purl.org/dc/dcmitype/StillImage"/>
    <dc:date>2022-08-23T19:26:08.400072</dc:date>
    <dc:format>image/svg+xml</dc:format>
    <dc:creator>
     <cc:Agent>
      <dc:title>Matplotlib v3.5.1, https://matplotlib.org/</dc:title>
     </cc:Agent>
    </dc:creator>
   </cc:Work>
  </rdf:RDF>
 </metadata>
 <defs>
  <style type="text/css">*{stroke-linejoin: round; stroke-linecap: butt}</style>
 </defs>
 <g id="figure_1">
  <g id="patch_1">
   <path d="M 0 353.99952 
L 469.19952 353.99952 
L 469.19952 0 
L 0 0 
z
" style="fill: #ffffff"/>
  </g>
  <g id="axes_1">
   <g id="line2d_1">
    <path d="M 234.59976 176.99976 
L 423.858878 205.447309 
" clip-path="url(#p11b7d37ce6)" style="fill: none; stroke: #9467bd; stroke-width: 1.5; stroke-linecap: square"/>
   </g>
   <g id="line2d_2">
    <path d="M 234.59976 176.99976 
L 257.310854 25.279498 
" clip-path="url(#p11b7d37ce6)" style="fill: none; stroke: #d62728; stroke-width: 1.5; stroke-linecap: square"/>
   </g>
   <g id="line2d_3">
    <path d="M 107.959982 157.964528 
L 234.59976 176.99976 
" clip-path="url(#p11b7d37ce6)" style="fill: none; stroke: #1f77b4; stroke-width: 1.5; stroke-linecap: square"/>
   </g>
   <g id="line2d_4">
    <path d="M 45.340642 148.552211 
L 107.959982 157.964528 
" clip-path="url(#p11b7d37ce6)" style="fill: none; stroke: #8c564b; stroke-width: 1.5; stroke-linecap: square"/>
   </g>
   <g id="line2d_5">
    <defs>
     <path id="me478da63f0" d="M 0 4 
C 1.060812 4 2.078319 3.578535 2.828427 2.828427 
C 3.578535 2.078319 4 1.060812 4 0 
C 4 -1.060812 3.578535 -2.078319 2.828427 -2.828427 
C 2.078319 -3.578535 1.060812 -4 0 -4 
C -1.060812 -4 -2.078319 -3.578535 -2.828427 -2.828427 
C -3.578535 -2.078319 -4 -1.060812 -4 0 
C -4 1.060812 -3.578535 2.078319 -2.828427 2.828427 
C -2.078319 3.578535 -1.060812 4 0 4 
z
" style="stroke: #000000"/>
    </defs>
    <g clip-path="url(#p11b7d37ce6)">
     <use xlink:href="#me478da63f0" x="107.959982" y="157.964528" style="stroke: #000000"/>
    </g>
   </g>
   <g id="line2d_6">
    <path d="M 171.279871 157.964528 
L 171.154924 153.98042 
L 170.780575 150.012037 
L 170.158302 146.075038 
L 169.29056 142.184962 
L 168.180775 138.35716 
L 166.833326 134.606739 
L 165.25353 130.948502 
L 163.447624 127.396884 
L 161.422732 123.965902 
L 159.186848 120.669098 
L 156.748795 117.519482 
L 154.118194 114.529483 
L 151.305429 111.710903 
L 148.321598 109.074865 
L 145.178479 106.631772 
L 141.888475 104.391266 
L 138.464571 102.36219 
L 134.920279 100.55255 
L 131.269588 98.969489 
L 127.526904 97.619255 
L 123.706998 96.507175 
L 119.824946 95.63764 
L 115.896068 95.014081 
L 111.93587 94.638958 
L 107.959982 94.513753 
L 103.984093 94.638958 
L 100.023895 95.014081 
L 96.095018 95.63764 
L 92.212966 96.507175 
L 88.39306 97.619255 
L 84.650376 98.969489 
L 80.999684 100.55255 
L 77.455392 102.36219 
L 74.031488 104.391266 
L 70.741485 106.631772 
L 67.598365 109.074865 
L 64.614535 111.710903 
L 61.801769 114.529483 
L 59.171169 117.519482 
L 56.733115 120.669098 
L 54.497231 123.965902 
L 52.47234 127.396884 
L 50.666433 130.948502 
L 49.086638 134.606739 
L 47.739189 138.35716 
L 46.629403 142.184962 
L 45.761662 146.075038 
L 45.139389 150.012037 
L 44.76504 153.98042 
L 44.640093 157.964528 
L 44.76504 161.948635 
L 45.139389 165.917018 
L 45.761662 169.854017 
L 46.629403 173.744094 
L 47.739189 177.571895 
L 49.086638 181.322316 
L 50.666433 184.980554 
L 52.47234 188.532171 
L 54.497231 191.963153 
L 56.733115 195.259957 
L 59.171169 198.409574 
L 61.801769 201.399572 
L 64.614535 204.218152 
L 67.598365 206.85419 
L 70.741485 209.297283 
L 74.031488 211.537789 
L 77.455392 213.566865 
L 80.999684 215.376505 
L 84.650376 216.959566 
L 88.39306 218.3098 
L 92.212966 219.42188 
L 96.095018 220.291415 
L 100.023895 220.914974 
L 103.984093 221.290097 
L 107.959982 221.415302 
L 111.93587 221.290097 
L 115.896068 220.914974 
L 119.824946 220.291415 
L 123.706998 219.42188 
L 127.526904 218.3098 
L 131.269588 216.959566 
L 134.920279 215.376505 
L 138.464571 213.566865 
L 141.888475 211.537789 
L 145.178479 209.297283 
L 148.321598 206.85419 
L 151.305429 204.218152 
L 154.118194 201.399572 
L 156.748795 198.409574 
L 159.186848 195.259957 
L 161.422732 191.963153 
L 163.447624 188.532171 
L 165.25353 184.980554 
L 166.833326 181.322316 
L 168.180775 177.571895 
L 169.29056 173.744094 
L 170.158302 169.854017 
L 170.780575 165.917018 
L 171.154924 161.948635 
L 171.279871 157.964528 
" clip-path="url(#p11b7d37ce6)" style="fill: none; stroke: #b2b2b2; stroke-width: 1.5; stroke-linecap: square"/>
   </g>
   <g id="line2d_7">
    <g clip-path="url(#p11b7d37ce6)">
     <use xlink:href="#me478da63f0" x="361.239538" y="196.034992" style="stroke: #000000"/>
    </g>
   </g>
   <g id="line2d_8">
    <path d="M 424.559427 196.034992 
L 424.43448 192.050885 
L 424.060131 188.082502 
L 423.437858 184.145503 
L 422.570117 180.255426 
L 421.460331 176.427625 
L 420.112882 172.677204 
L 418.533087 169.018966 
L 416.72718 165.467349 
L 414.702289 162.036367 
L 412.466405 158.739563 
L 410.028351 155.589946 
L 407.397751 152.599948 
L 404.584985 149.781368 
L 401.601155 147.14533 
L 398.458035 144.702237 
L 395.168032 142.461731 
L 391.744128 140.432655 
L 388.199836 138.623015 
L 384.549144 137.039954 
L 380.80646 135.68972 
L 376.986554 134.57764 
L 373.104502 133.708105 
L 369.175625 133.084546 
L 365.215427 132.709423 
L 361.239538 132.584218 
L 357.26365 132.709423 
L 353.303452 133.084546 
L 349.374574 133.708105 
L 345.492522 134.57764 
L 341.672616 135.68972 
L 337.929932 137.039954 
L 334.279241 138.623015 
L 330.734949 140.432655 
L 327.311045 142.461731 
L 324.021041 144.702237 
L 320.877922 147.14533 
L 317.894091 149.781368 
L 315.081326 152.599948 
L 312.450725 155.589946 
L 310.012672 158.739563 
L 307.776788 162.036367 
L 305.751896 165.467349 
L 303.94599 169.018966 
L 302.366194 172.677204 
L 301.018745 176.427625 
L 299.90896 180.255426 
L 299.041218 184.145503 
L 298.418945 188.082502 
L 298.044596 192.050885 
L 297.919649 196.034992 
L 298.044596 200.0191 
L 298.418945 203.987483 
L 299.041218 207.924482 
L 299.90896 211.814558 
L 301.018745 215.64236 
L 302.366194 219.392781 
L 303.94599 223.051018 
L 305.751896 226.602636 
L 307.776788 230.033618 
L 310.012672 233.330422 
L 312.450725 236.480038 
L 315.081326 239.470037 
L 317.894091 242.288617 
L 320.877922 244.924655 
L 324.021041 247.367748 
L 327.311045 249.608254 
L 330.734949 251.63733 
L 334.279241 253.44697 
L 337.929932 255.030031 
L 341.672616 256.380265 
L 345.492522 257.492345 
L 349.374574 258.36188 
L 353.303452 258.985439 
L 357.26365 259.360562 
L 361.239538 259.485767 
L 365.215427 259.360562 
L 369.175625 258.985439 
L 373.104502 258.36188 
L 376.986554 257.492345 
L 380.80646 256.380265 
L 384.549144 255.030031 
L 388.199836 253.44697 
L 391.744128 251.63733 
L 395.168032 249.608254 
L 398.458035 247.367748 
L 401.601155 244.924655 
L 404.584985 242.288617 
L 407.397751 239.470037 
L 410.028351 236.480038 
L 412.466405 233.330422 
L 414.702289 230.033618 
L 416.72718 226.602636 
L 418.533087 223.051018 
L 420.112882 219.392781 
L 421.460331 215.64236 
L 422.570117 211.814558 
L 423.437858 207.924482 
L 424.060131 203.987483 
L 424.43448 200.0191 
L 424.559427 196.034992 
" clip-path="url(#p11b7d37ce6)" style="fill: none; stroke: #b2b2b2; stroke-width: 1.5; stroke-linecap: square"/>
   </g>
   <g id="line2d_9">
    <path d="M 423.858878 205.447309 
L 424.91146 195.86458 
L 425.212969 186.207401 
L 424.762214 176.513883 
L 423.560975 166.822282 
L 421.613992 157.170848 
L 418.92895 147.597669 
L 415.516444 138.140526 
L 411.389943 128.836744 
L 406.565732 119.723038 
L 401.062849 110.835378 
L 394.903013 102.208839 
L 388.110534 93.877465 
L 380.712217 85.874136 
L 372.737261 78.230439 
L 364.21714 70.976539 
L 355.185478 64.141065 
L 345.677919 57.750992 
L 335.731986 51.83154 
L 325.38693 46.406069 
L 314.683578 41.495992 
L 303.664172 37.120687 
L 292.372201 33.29742 
L 280.852228 30.041281 
L 269.149717 27.36512 
L 257.310854 25.279498 
L 245.382361 23.792647 
L 233.411313 22.910434 
L 221.444956 22.636342 
L 209.530515 22.971451 
L 197.71501 23.91444 
L 186.045073 25.461587 
L 174.566759 27.606785 
L 163.325368 30.34157 
L 152.365264 33.655147 
L 141.729702 37.53444 
L 131.460656 41.964139 
L 121.598653 46.926761 
L 112.182614 52.402723 
L 103.249699 58.370412 
L 94.835163 64.806277 
L 86.972214 71.684918 
L 79.691883 78.979189 
L 73.022903 86.660302 
L 66.991593 94.697944 
L 61.621756 103.060394 
L 56.934584 111.714648 
L 52.948576 120.626553 
L 49.679461 129.760937 
L 47.140143 139.081752 
L 45.340642 148.552211 
L 44.28806 158.13494 
L 43.986551 167.792119 
L 44.437306 177.485637 
L 45.638545 187.177238 
L 47.585528 196.828672 
L 50.27057 206.401851 
L 53.683076 215.858994 
L 57.809577 225.162776 
L 62.633788 234.276482 
L 68.136671 243.164142 
L 74.296507 251.790681 
L 81.088986 260.122055 
L 88.487303 268.125384 
L 96.462259 275.769081 
L 104.98238 283.022981 
L 114.014042 289.858455 
L 123.521601 296.248528 
L 133.467534 302.16798 
L 143.81259 307.593451 
L 154.515942 312.503528 
L 165.535348 316.878833 
L 176.827319 320.7021 
L 188.347292 323.958239 
L 200.049803 326.6344 
L 211.888666 328.720022 
L 223.817159 330.206873 
L 235.788207 331.089086 
L 247.754564 331.363178 
L 259.669005 331.028069 
L 271.48451 330.08508 
L 283.154447 328.537933 
L 294.632761 326.392735 
L 305.874152 323.65795 
L 316.834256 320.344373 
L 327.469818 316.46508 
L 337.738864 312.035381 
L 347.600867 307.072759 
L 357.016906 301.596797 
L 365.949821 295.629108 
L 374.364357 289.193243 
L 382.227306 282.314602 
L 389.507637 275.020331 
L 396.176617 267.339218 
L 402.207927 259.301576 
L 407.577764 250.939126 
L 412.264936 242.284872 
L 416.250944 233.372967 
L 419.520059 224.238583 
L 422.059377 214.917768 
L 423.858878 205.447309 
" clip-path="url(#p11b7d37ce6)" style="fill: none; stroke: #ff7f0e; stroke-width: 2; stroke-linecap: square"/>
   </g>
   <g id="text_1">
    <!-- $a=\max(f c, c + r)$ -->
    <g style="fill: #9467bd" transform="translate(266.585039 198.767152)rotate(-351)scale(0.1 -0.1)">
     <defs>
      <path id="DejaVuSans-Oblique-61" d="M 3438 1997 
L 3047 0 
L 2472 0 
L 2578 531 
Q 2325 219 2001 64 
Q 1678 -91 1281 -91 
Q 834 -91 548 182 
Q 263 456 263 884 
Q 263 1497 752 1853 
Q 1241 2209 2100 2209 
L 2900 2209 
L 2931 2363 
Q 2938 2388 2941 2417 
Q 2944 2447 2944 2509 
Q 2944 2788 2717 2942 
Q 2491 3097 2081 3097 
Q 1800 3097 1504 3025 
Q 1209 2953 897 2809 
L 997 3341 
Q 1322 3463 1633 3523 
Q 1944 3584 2234 3584 
Q 2853 3584 3176 3315 
Q 3500 3047 3500 2534 
Q 3500 2431 3484 2292 
Q 3469 2153 3438 1997 
z
M 2816 1759 
L 2241 1759 
Q 1534 1759 1195 1570 
Q 856 1381 856 984 
Q 856 709 1029 553 
Q 1203 397 1509 397 
Q 1978 397 2328 733 
Q 2678 1069 2791 1631 
L 2816 1759 
z
" transform="scale(0.015625)"/>
      <path id="DejaVuSans-3d" d="M 678 2906 
L 4684 2906 
L 4684 2381 
L 678 2381 
L 678 2906 
z
M 678 1631 
L 4684 1631 
L 4684 1100 
L 678 1100 
L 678 1631 
z
" transform="scale(0.015625)"/>
      <path id="DejaVuSans-6d" d="M 3328 2828 
Q 3544 3216 3844 3400 
Q 4144 3584 4550 3584 
Q 5097 3584 5394 3201 
Q 5691 2819 5691 2113 
L 5691 0 
L 5113 0 
L 5113 2094 
Q 5113 2597 4934 2840 
Q 4756 3084 4391 3084 
Q 3944 3084 3684 2787 
Q 3425 2491 3425 1978 
L 3425 0 
L 2847 0 
L 2847 2094 
Q 2847 2600 2669 2842 
Q 2491 3084 2119 3084 
Q 1678 3084 1418 2786 
Q 1159 2488 1159 1978 
L 1159 0 
L 581 0 
L 581 3500 
L 1159 3500 
L 1159 2956 
Q 1356 3278 1631 3431 
Q 1906 3584 2284 3584 
Q 2666 3584 2933 3390 
Q 3200 3197 3328 2828 
z
" transform="scale(0.015625)"/>
      <path id="DejaVuSans-61" d="M 2194 1759 
Q 1497 1759 1228 1600 
Q 959 1441 959 1056 
Q 959 750 1161 570 
Q 1363 391 1709 391 
Q 2188 391 2477 730 
Q 2766 1069 2766 1631 
L 2766 1759 
L 2194 1759 
z
M 3341 1997 
L 3341 0 
L 2766 0 
L 2766 531 
Q 2569 213 2275 61 
Q 1981 -91 1556 -91 
Q 1019 -91 701 211 
Q 384 513 384 1019 
Q 384 1609 779 1909 
Q 1175 2209 1959 2209 
L 2766 2209 
L 2766 2266 
Q 2766 2663 2505 2880 
Q 2244 3097 1772 3097 
Q 1472 3097 1187 3025 
Q 903 2953 641 2809 
L 641 3341 
Q 956 3463 1253 3523 
Q 1550 3584 1831 3584 
Q 2591 3584 2966 3190 
Q 3341 2797 3341 1997 
z
" transform="scale(0.015625)"/>
      <path id="DejaVuSans-78" d="M 3513 3500 
L 2247 1797 
L 3578 0 
L 2900 0 
L 1881 1375 
L 863 0 
L 184 0 
L 1544 1831 
L 300 3500 
L 978 3500 
L 1906 2253 
L 2834 3500 
L 3513 3500 
z
" transform="scale(0.015625)"/>
      <path id="DejaVuSans-28" d="M 1984 4856 
Q 1566 4138 1362 3434 
Q 1159 2731 1159 2009 
Q 1159 1288 1364 580 
Q 1569 -128 1984 -844 
L 1484 -844 
Q 1016 -109 783 600 
Q 550 1309 550 2009 
Q 550 2706 781 3412 
Q 1013 4119 1484 4856 
L 1984 4856 
z
" transform="scale(0.015625)"/>
      <path id="DejaVuSans-Oblique-66" d="M 3059 4863 
L 2969 4384 
L 2419 4384 
Q 2106 4384 1964 4261 
Q 1822 4138 1753 3809 
L 1691 3500 
L 2638 3500 
L 2553 3053 
L 1606 3053 
L 1013 0 
L 434 0 
L 1031 3053 
L 481 3053 
L 563 3500 
L 1113 3500 
L 1159 3744 
Q 1278 4363 1576 4613 
Q 1875 4863 2516 4863 
L 3059 4863 
z
" transform="scale(0.015625)"/>
      <path id="DejaVuSans-Oblique-63" d="M 3431 3366 
L 3316 2797 
Q 3109 2947 2876 3022 
Q 2644 3097 2394 3097 
Q 2119 3097 1870 3000 
Q 1622 2903 1453 2725 
Q 1184 2453 1037 2087 
Q 891 1722 891 1331 
Q 891 859 1127 628 
Q 1363 397 1844 397 
Q 2081 397 2348 469 
Q 2616 541 2906 684 
L 2797 116 
Q 2547 13 2283 -39 
Q 2019 -91 1741 -91 
Q 1044 -91 669 257 
Q 294 606 294 1253 
Q 294 1797 489 2255 
Q 684 2713 1069 3078 
Q 1331 3328 1684 3456 
Q 2038 3584 2456 3584 
Q 2700 3584 2940 3529 
Q 3181 3475 3431 3366 
z
" transform="scale(0.015625)"/>
      <path id="DejaVuSans-2c" d="M 750 794 
L 1409 794 
L 1409 256 
L 897 -744 
L 494 -744 
L 750 256 
L 750 794 
z
" transform="scale(0.015625)"/>
      <path id="DejaVuSans-2b" d="M 2944 4013 
L 2944 2272 
L 4684 2272 
L 4684 1741 
L 2944 1741 
L 2944 0 
L 2419 0 
L 2419 1741 
L 678 1741 
L 678 2272 
L 2419 2272 
L 2419 4013 
L 2944 4013 
z
" transform="scale(0.015625)"/>
      <path id="DejaVuSans-Oblique-72" d="M 2853 2969 
Q 2766 3016 2653 3041 
Q 2541 3066 2413 3066 
Q 1953 3066 1609 2717 
Q 1266 2369 1153 1784 
L 800 0 
L 225 0 
L 909 3500 
L 1484 3500 
L 1375 2956 
Q 1603 3259 1920 3421 
Q 2238 3584 2597 3584 
Q 2691 3584 2781 3573 
Q 2872 3563 2963 3538 
L 2853 2969 
z
" transform="scale(0.015625)"/>
      <path id="DejaVuSans-29" d="M 513 4856 
L 1013 4856 
Q 1481 4119 1714 3412 
Q 1947 2706 1947 2009 
Q 1947 1309 1714 600 
Q 1481 -109 1013 -844 
L 513 -844 
Q 928 -128 1133 580 
Q 1338 1288 1338 2009 
Q 1338 2731 1133 3434 
Q 928 4138 513 4856 
z
" transform="scale(0.015625)"/>
     </defs>
     <use xlink:href="#DejaVuSans-Oblique-61" transform="translate(0 0.015625)"/>
     <use xlink:href="#DejaVuSans-3d" transform="translate(80.761719 0.015625)"/>
     <use xlink:href="#DejaVuSans-6d" transform="translate(184.033203 0.015625)"/>
     <use xlink:href="#DejaVuSans-61" transform="translate(281.445312 0.015625)"/>
     <use xlink:href="#DejaVuSans-78" transform="translate(342.724609 0.015625)"/>
     <use xlink:href="#DejaVuSans-28" transform="translate(401.904297 0.015625)"/>
     <use xlink:href="#DejaVuSans-Oblique-66" transform="translate(440.917969 0.015625)"/>
     <use xlink:href="#DejaVuSans-Oblique-63" transform="translate(476.123047 0.015625)"/>
     <use xlink:href="#DejaVuSans-2c" transform="translate(531.103516 0.015625)"/>
     <use xlink:href="#DejaVuSans-Oblique-63" transform="translate(582.373047 0.015625)"/>
     <use xlink:href="#DejaVuSans-2b" transform="translate(656.835938 0.015625)"/>
     <use xlink:href="#DejaVuSans-Oblique-72" transform="translate(760.107422 0.015625)"/>
     <use xlink:href="#DejaVuSans-29" transform="translate(801.220703 0.015625)"/>
    </g>
   </g>
   <g id="text_2">
    <!-- $b=\max(m a, r)$ -->
    <g style="fill: #d62728" transform="translate(251.602631 166.063958)rotate(-81)scale(0.1 -0.1)">
     <defs>
      <path id="DejaVuSans-Oblique-62" d="M 3169 2138 
Q 3169 2591 2961 2847 
Q 2753 3103 2388 3103 
Q 2122 3103 1889 2973 
Q 1656 2844 1484 2597 
Q 1303 2338 1198 1995 
Q 1094 1653 1094 1313 
Q 1094 881 1298 636 
Q 1503 391 1863 391 
Q 2134 391 2365 517 
Q 2597 644 2772 891 
Q 2950 1147 3059 1487 
Q 3169 1828 3169 2138 
z
M 1381 2969 
Q 1594 3256 1914 3420 
Q 2234 3584 2584 3584 
Q 3122 3584 3439 3221 
Q 3756 2859 3756 2241 
Q 3756 1734 3570 1259 
Q 3384 784 3041 416 
Q 2816 172 2522 40 
Q 2228 -91 1906 -91 
Q 1566 -91 1316 65 
Q 1066 222 909 531 
L 806 0 
L 231 0 
L 1178 4863 
L 1753 4863 
L 1381 2969 
z
" transform="scale(0.015625)"/>
      <path id="DejaVuSans-Oblique-6d" d="M 5747 2113 
L 5338 0 
L 4763 0 
L 5166 2094 
Q 5191 2228 5203 2325 
Q 5216 2422 5216 2491 
Q 5216 2772 5059 2928 
Q 4903 3084 4622 3084 
Q 4203 3084 3875 2770 
Q 3547 2456 3450 1953 
L 3066 0 
L 2491 0 
L 2900 2094 
Q 2925 2209 2937 2307 
Q 2950 2406 2950 2484 
Q 2950 2769 2794 2926 
Q 2638 3084 2363 3084 
Q 1938 3084 1609 2770 
Q 1281 2456 1184 1953 
L 800 0 
L 225 0 
L 909 3500 
L 1484 3500 
L 1375 2956 
Q 1609 3263 1923 3423 
Q 2238 3584 2597 3584 
Q 2978 3584 3223 3384 
Q 3469 3184 3519 2828 
Q 3781 3197 4126 3390 
Q 4472 3584 4856 3584 
Q 5306 3584 5551 3325 
Q 5797 3066 5797 2591 
Q 5797 2488 5784 2364 
Q 5772 2241 5747 2113 
z
" transform="scale(0.015625)"/>
     </defs>
     <use xlink:href="#DejaVuSans-Oblique-62" transform="translate(0 0.015625)"/>
     <use xlink:href="#DejaVuSans-3d" transform="translate(82.958984 0.015625)"/>
     <use xlink:href="#DejaVuSans-6d" transform="translate(186.230469 0.015625)"/>
     <use xlink:href="#DejaVuSans-61" transform="translate(283.642578 0.015625)"/>
     <use xlink:href="#DejaVuSans-78" transform="translate(344.921875 0.015625)"/>
     <use xlink:href="#DejaVuSans-28" transform="translate(404.101562 0.015625)"/>
     <use xlink:href="#DejaVuSans-Oblique-6d" transform="translate(443.115234 0.015625)"/>
     <use xlink:href="#DejaVuSans-Oblique-61" transform="translate(540.527344 0.015625)"/>
     <use xlink:href="#DejaVuSans-2c" transform="translate(601.806641 0.015625)"/>
     <use xlink:href="#DejaVuSans-Oblique-72" transform="translate(653.076172 0.015625)"/>
     <use xlink:href="#DejaVuSans-29" transform="translate(694.189453 0.015625)"/>
    </g>
   </g>
   <g id="text_3">
    <!-- $c=||p_1-p_0||/2$ -->
    <g style="fill: #1f77b4" transform="translate(146.327358 176.702219)rotate(-351)scale(0.1 -0.1)">
     <defs>
      <path id="DejaVuSans-7c" d="M 1344 4891 
L 1344 -1509 
L 813 -1509 
L 813 4891 
L 1344 4891 
z
" transform="scale(0.015625)"/>
      <path id="DejaVuSans-Oblique-70" d="M 3175 2156 
Q 3175 2616 2975 2859 
Q 2775 3103 2400 3103 
Q 2144 3103 1911 2972 
Q 1678 2841 1497 2591 
Q 1319 2344 1212 1994 
Q 1106 1644 1106 1300 
Q 1106 863 1306 627 
Q 1506 391 1875 391 
Q 2147 391 2380 519 
Q 2613 647 2778 891 
Q 2956 1147 3065 1494 
Q 3175 1841 3175 2156 
z
M 1394 2969 
Q 1625 3272 1939 3428 
Q 2253 3584 2638 3584 
Q 3175 3584 3472 3232 
Q 3769 2881 3769 2247 
Q 3769 1728 3584 1258 
Q 3400 788 3053 416 
Q 2822 169 2531 39 
Q 2241 -91 1919 -91 
Q 1547 -91 1294 64 
Q 1041 219 916 525 
L 556 -1331 
L -19 -1331 
L 922 3500 
L 1497 3500 
L 1394 2969 
z
" transform="scale(0.015625)"/>
      <path id="DejaVuSans-31" d="M 794 531 
L 1825 531 
L 1825 4091 
L 703 3866 
L 703 4441 
L 1819 4666 
L 2450 4666 
L 2450 531 
L 3481 531 
L 3481 0 
L 794 0 
L 794 531 
z
" transform="scale(0.015625)"/>
      <path id="DejaVuSans-2212" d="M 678 2272 
L 4684 2272 
L 4684 1741 
L 678 1741 
L 678 2272 
z
" transform="scale(0.015625)"/>
      <path id="DejaVuSans-30" d="M 2034 4250 
Q 1547 4250 1301 3770 
Q 1056 3291 1056 2328 
Q 1056 1369 1301 889 
Q 1547 409 2034 409 
Q 2525 409 2770 889 
Q 3016 1369 3016 2328 
Q 3016 3291 2770 3770 
Q 2525 4250 2034 4250 
z
M 2034 4750 
Q 2819 4750 3233 4129 
Q 3647 3509 3647 2328 
Q 3647 1150 3233 529 
Q 2819 -91 2034 -91 
Q 1250 -91 836 529 
Q 422 1150 422 2328 
Q 422 3509 836 4129 
Q 1250 4750 2034 4750 
z
" transform="scale(0.015625)"/>
      <path id="DejaVuSans-2f" d="M 1625 4666 
L 2156 4666 
L 531 -594 
L 0 -594 
L 1625 4666 
z
" transform="scale(0.015625)"/>
      <path id="DejaVuSans-32" d="M 1228 531 
L 3431 531 
L 3431 0 
L 469 0 
L 469 531 
Q 828 903 1448 1529 
Q 2069 2156 2228 2338 
Q 2531 2678 2651 2914 
Q 2772 3150 2772 3378 
Q 2772 3750 2511 3984 
Q 2250 4219 1831 4219 
Q 1534 4219 1204 4116 
Q 875 4013 500 3803 
L 500 4441 
Q 881 4594 1212 4672 
Q 1544 4750 1819 4750 
Q 2544 4750 2975 4387 
Q 3406 4025 3406 3419 
Q 3406 3131 3298 2873 
Q 3191 2616 2906 2266 
Q 2828 2175 2409 1742 
Q 1991 1309 1228 531 
z
" transform="scale(0.015625)"/>
     </defs>
     <use xlink:href="#DejaVuSans-Oblique-63" transform="translate(0 0.578125)"/>
     <use xlink:href="#DejaVuSans-3d" transform="translate(74.462891 0.578125)"/>
     <use xlink:href="#DejaVuSans-7c" transform="translate(177.734375 0.578125)"/>
     <use xlink:href="#DejaVuSans-7c" transform="translate(211.425781 0.578125)"/>
     <use xlink:href="#DejaVuSans-Oblique-70" transform="translate(245.117188 0.578125)"/>
     <use xlink:href="#DejaVuSans-31" transform="translate(308.59375 -15.828125)scale(0.7)"/>
     <use xlink:href="#DejaVuSans-2212" transform="translate(375.34668 0.578125)"/>
     <use xlink:href="#DejaVuSans-Oblique-70" transform="translate(478.618164 0.578125)"/>
     <use xlink:href="#DejaVuSans-30" transform="translate(542.094727 -15.828125)scale(0.7)"/>
     <use xlink:href="#DejaVuSans-7c" transform="translate(589.365234 0.578125)"/>
     <use xlink:href="#DejaVuSans-7c" transform="translate(623.056641 0.578125)"/>
     <use xlink:href="#DejaVuSans-2f" transform="translate(656.748047 0.578125)"/>
     <use xlink:href="#DejaVuSans-32" transform="translate(686.814453 0.578125)"/>
    </g>
   </g>
   <g id="text_4">
    <!-- $r$ -->
    <g style="fill: #8c564b" transform="translate(64.661943 163.783484)rotate(-351)scale(0.1 -0.1)">
     <use xlink:href="#DejaVuSans-Oblique-72"/>
    </g>
   </g>
  </g>
 </g>
 <defs>
  <clipPath id="p11b7d37ce6">
   <rect x="7.2" y="7.2" width="454.79952" height="339.59952"/>
  </clipPath>
 </defs>
</svg>
