<?xml version="1.0" encoding="UTF-8" standalone="no"?>
<svg
   xmlns:dc="http://purl.org/dc/elements/1.1/"
   xmlns:cc="http://creativecommons.org/ns#"
   xmlns:rdf="http://www.w3.org/1999/02/22-rdf-syntax-ns#"
   xmlns:svg="http://www.w3.org/2000/svg"
   xmlns="http://www.w3.org/2000/svg"
   xmlns:xlink="http://www.w3.org/1999/xlink"
   id="svg32"
   width="289.49841pt"
   viewBox="0 0 289.49841 139.9742"
   version="1.1"
   height="139.9742pt">
  <metadata
     id="metadata36">
    <rdf:RDF>
      <cc:Work
         rdf:about="">
        <dc:format>image/svg+xml</dc:format>
        <dc:type
           rdf:resource="http://purl.org/dc/dcmitype/StillImage" />
        <dc:title></dc:title>
      </cc:Work>
    </rdf:RDF>
  </metadata>
  <defs
     style="stroke-linecap:butt;stroke-linejoin:round"
     id="defs4">
    <style
       id="style2"
       type="text/css">
*{stroke-linecap:butt;stroke-linejoin:round;}
  </style>
  </defs>
  <g
     transform="translate(-38.457031,-19.531107)"
     id="patch_1"
     style="stroke-linecap:butt;stroke-linejoin:round">
    <path
       d="M 0,180 H 360 V 0 H 0 Z"
       style="fill:none;stroke-linecap:butt;stroke-linejoin:round"
       id="path6" />
  </g>
  <g
     transform="translate(-38.457031,-19.531107)"
     id="axes_1"
     style="stroke-linecap:butt;stroke-linejoin:round">
    <g
       id="line2d_1"
       style="stroke-linecap:butt;stroke-linejoin:round">
      <path
         clip-path="url(#p2ba8cafe89)"
         d="m 57.681818,29.594118 21.136364,39.970588 21.136363,39.970584 21.136365,39.97059 21.13636,-39.97059 21.13637,39.97059 21.13636,-39.97059 21.13636,-39.970584 21.13637,39.970584 21.13636,39.97059 21.13636,-39.97059 21.13637,-39.970584 21.13636,-39.970588"
         style="fill:none;stroke:#cccccc;stroke-width:10;stroke-linecap:round;stroke-linejoin:round"
         id="path9" />
    </g>
    <g
       id="line2d_2"
       style="stroke-linecap:butt;stroke-linejoin:round">
      <defs
         id="defs13">
        <path
           d="m 0,17.5 c 4.641054,0 9.092648,-1.84391 12.374369,-5.125631 C 15.65609,9.092648 17.5,4.641054 17.5,0 17.5,-4.641054 15.65609,-9.092648 12.374369,-12.374369 9.092648,-15.65609 4.641054,-17.5 0,-17.5 c -4.641054,0 -9.092648,1.84391 -12.374369,5.125631 C -15.65609,-9.092648 -17.5,-4.641054 -17.5,0 c 0,4.641054 1.84391,9.092648 5.125631,12.374369 C -9.092648,15.65609 -4.641054,17.5 0,17.5 Z"
           id="m9afb959252"
           style="stroke:#e24a33;stroke-linecap:butt;stroke-linejoin:round" />
      </defs>
      <g
         clip-path="url(#p2ba8cafe89)"
         id="g17"
         style="stroke-linecap:butt;stroke-linejoin:round">
        <use
           style="fill:#e24a33;stroke:#e24a33;stroke-linecap:butt;stroke-linejoin:round"
           x="195.06818"
           xlink:href="#m9afb959252"
           y="77.558823"
           id="use15"
           width="100%"
           height="100%" />
      </g>
    </g>
    <g
       id="text_1"
       style="stroke-linecap:butt;stroke-linejoin:round">
      <path
         d="m 45.457031,80.224081 q 0,-6.201563 1.842188,-10.884375 1.85625,-4.682813 4.907812,-7.776563 3.065625,-3.107812 7.017188,-4.682812 3.965625,-1.575 8.1,-1.575 9.73125,0 15.173437,6.032812 5.442188,6.01875 5.442188,17.985938 0,0.9 -0.04219,2.025 -0.04219,1.125 -0.140625,2.025 h -31.05 q 0.45,5.68125 4.007813,8.789062 3.557812,3.09375 10.307812,3.09375 3.951563,0 7.242188,-0.717187 3.290625,-0.717188 5.175,-1.532813 l 1.434375,8.915627 q -0.9,0.45 -2.475,0.94219 -1.575,0.49218 -3.6,0.9 -2.025,0.40781 -4.359375,0.675 -2.334375,0.26718 -4.767188,0.26718 -6.215625,0 -10.814062,-1.84218 -4.584375,-1.84219 -7.551563,-5.118754 -2.967187,-3.290625 -4.415625,-7.748438 -1.434375,-4.457812 -1.434375,-9.773437 z m 31.598438,-4.851563 q 0,-2.25 -0.632813,-4.275 -0.632812,-2.025 -1.85625,-3.501562 -1.209375,-1.490625 -2.967187,-2.348438 -1.74375,-0.857812 -4.176563,-0.857812 -2.517187,0 -4.415625,0.942187 -1.884375,0.942188 -3.192187,2.475 -1.307813,1.532813 -2.025,3.515625 -0.717188,1.982813 -0.984375,4.05 z m 49.224371,3.417188 q 0,-7.382813 -1.84219,-10.659375 -1.84219,-3.290625 -6.89063,-3.290625 -1.8,0 -3.96562,0.267187 -2.15156,0.267188 -3.23438,0.45 V 103.53971 H 99.462648 V 58.005331 q 3.150002,-0.9 8.226562,-1.715625 5.09063,-0.815625 10.75781,-0.815625 4.86563,0 7.95938,1.265625 3.10781,1.265625 5.18906,3.332812 0.98438,-0.717187 2.51719,-1.532812 1.53281,-0.815625 3.41719,-1.490625 1.88437,-0.675 3.99375,-1.125 2.12343,-0.45 4.28906,-0.45 5.48437,0 9.04219,1.575 3.55781,1.575 5.58281,4.415625 2.025,2.840625 2.78437,6.848437 0.77344,3.99375 0.77344,8.760938 V 103.53971 H 153.09702 V 78.789706 q 0,-7.382813 -1.8,-10.659375 -1.8,-3.290625 -6.93281,-3.290625 -2.60156,0 -4.95,0.857812 -2.33437,0.857813 -3.50156,1.659375 0.71719,2.25 0.98437,4.78125 0.26719,2.517188 0.26719,5.385938 v 26.015629 h -10.88437 z m 59.58279,0 q 0,6.932812 3.00938,10.125 3.02344,3.192187 7.79062,3.192187 2.60157,0 4.89375,-0.717187 2.30625,-0.717188 3.74063,-1.715625 V 65.289706 q -1.16719,-0.267188 -2.88281,-0.492188 -1.70157,-0.225 -4.31719,-0.225 -5.93438,0 -9.08438,3.923438 -3.15,3.909375 -3.15,10.29375 z m 30.33282,19.982812 q 0,11.250002 -5.72344,16.467192 -5.70938,5.21718 -17.50781,5.21718 -4.31719,0 -8.40938,-0.71718 -4.09219,-0.71719 -7.425,-1.88438 l 1.98281,-9.28125 q 2.78438,1.18125 6.34219,1.89844 3.55781,0.71719 7.69219,0.71719 6.56719,0 9.35156,-2.7 2.79844,-2.7 2.79844,-8.01563 v -1.799999 q -1.61719,0.815625 -4.275,1.631249 -2.65781,0.80156 -6.075,0.80156 -4.5,0 -8.24063,-1.434372 -3.72656,-1.448437 -6.38437,-4.232812 -2.65781,-2.784375 -4.14844,-6.975 -1.47656,-4.190625 -1.47656,-9.675 0,-5.132813 1.575,-9.45 1.575,-4.317188 4.58437,-7.36875 3.02344,-3.065625 7.34063,-4.78125 4.31719,-1.715625 9.81562,-1.715625 5.30157,0 10.06875,0.815625 4.78125,0.815625 8.11407,1.715625 z m 28.15874,6.117192 q -2.41875,0 -4.99219,-0.32344 -2.55937,-0.30938 -4.86562,-0.80156 -2.29219,-0.49219 -4.17657,-1.06875 -1.88437,-0.59063 -2.88281,-1.13907 l 2.16563,-9.267184 q 1.88437,0.9 5.48437,2.025 3.6,1.125 8.91563,1.125 7.10156,0 10.25156,-2.742188 3.15,-2.742187 3.15,-7.340625 0,-2.967187 -1.20938,-4.95 -1.20937,-1.982812 -3.33281,-3.192187 -2.10937,-1.209375 -4.86562,-1.701563 -2.74219,-0.50625 -5.79375,-0.50625 h -3.69844 v -8.817187 h 4.5 q 2.08125,0 4.19062,-0.407813 2.10938,-0.407812 3.825,-1.434375 1.71563,-1.040625 2.78438,-2.742187 1.08281,-1.715625 1.08281,-4.415625 0,-2.165625 -0.81562,-3.684375 -0.80157,-1.532813 -2.10938,-2.517188 -1.30781,-0.998437 -3.02344,-1.448437 -1.70156,-0.45 -3.58593,-0.45 -4.05,0 -7.2,1.223437 -3.15,1.209375 -5.58282,2.742188 l -3.96562,-8.1 q 1.26562,-0.815625 3.06562,-1.715625 1.8,-0.9 4.00782,-1.701563 2.20781,-0.815625 4.725,-1.307812 2.51718,-0.50625 5.30156,-0.50625 5.23125,0 9,1.265625 3.78281,1.265625 6.25781,3.557812 2.475,2.292188 3.68438,5.4 1.22343,3.107813 1.22343,6.792188 0,4.317187 -2.39062,7.748437 -2.37656,3.417188 -6.15938,5.217188 4.86563,1.701562 8.05782,5.667187 3.19218,3.951563 3.19218,10.167188 0,4.134375 -1.44843,7.692187 -1.43438,3.557813 -4.40157,6.13125 -2.96718,2.559377 -7.52343,4.049997 -4.54219,1.47657 -10.84219,1.47657 z m 45.36843,-25.017192 q 0,7.2 3.41718,11.292188 3.41719,4.092187 9.45,4.092187 2.61563,0 4.45781,-0.225 1.84219,-0.225 3.00938,-0.492187 v -27 q -1.43438,-0.984375 -3.825,-1.842188 -2.37656,-0.857812 -5.07656,-0.857812 -5.94844,0 -8.69063,4.05 -2.74218,4.05 -2.74218,10.982812 z m 31.23281,22.232812 q -3.24844,0.98438 -8.15625,1.78594 -4.89375,0.81562 -10.29375,0.81562 -5.58282,0 -9.99844,-1.70156 -4.40156,-1.71562 -7.50938,-4.907812 -3.10781,-3.192187 -4.78125,-7.734375 -1.65937,-4.55625 -1.65937,-10.223437 0,-5.582813 1.39219,-10.125 1.40625,-4.542188 4.10625,-7.776563 2.7,-3.248437 6.56718,-5.00625 3.86719,-1.757812 8.90157,-1.757812 3.43125,0 6.03281,0.815625 2.61562,0.815625 4.5,1.8 V 35.505331 l 10.89844,-1.8 z"
         style="fill:#348abd;stroke:#ffffff;stroke-width:4;stroke-linecap:butt;stroke-linejoin:round"
         id="path20" />
      <path
         d="m 45.457031,80.224081 q 0,-6.201563 1.842188,-10.884375 1.85625,-4.682813 4.907812,-7.776563 3.065625,-3.107812 7.017188,-4.682812 3.965625,-1.575 8.1,-1.575 9.73125,0 15.173437,6.032812 5.442188,6.01875 5.442188,17.985938 0,0.9 -0.04219,2.025 -0.04219,1.125 -0.140625,2.025 h -31.05 q 0.45,5.68125 4.007813,8.789062 3.557812,3.09375 10.307812,3.09375 3.951563,0 7.242188,-0.717187 3.290625,-0.717188 5.175,-1.532813 l 1.434375,8.915627 q -0.9,0.45 -2.475,0.94219 -1.575,0.49218 -3.6,0.9 -2.025,0.40781 -4.359375,0.675 -2.334375,0.26718 -4.767188,0.26718 -6.215625,0 -10.814062,-1.84218 -4.584375,-1.84219 -7.551563,-5.118754 -2.967187,-3.290625 -4.415625,-7.748438 -1.434375,-4.457812 -1.434375,-9.773437 z m 31.598438,-4.851563 q 0,-2.25 -0.632813,-4.275 -0.632812,-2.025 -1.85625,-3.501562 -1.209375,-1.490625 -2.967187,-2.348438 -1.74375,-0.857812 -4.176563,-0.857812 -2.517187,0 -4.415625,0.942187 -1.884375,0.942188 -3.192187,2.475 -1.307813,1.532813 -2.025,3.515625 -0.717188,1.982813 -0.984375,4.05 z m 49.224371,3.417188 q 0,-7.382813 -1.84219,-10.659375 -1.84219,-3.290625 -6.89063,-3.290625 -1.8,0 -3.96562,0.267187 -2.15156,0.267188 -3.23438,0.45 V 103.53971 H 99.462648 V 58.005331 q 3.150002,-0.9 8.226562,-1.715625 5.09063,-0.815625 10.75781,-0.815625 4.86563,0 7.95938,1.265625 3.10781,1.265625 5.18906,3.332812 0.98438,-0.717187 2.51719,-1.532812 1.53281,-0.815625 3.41719,-1.490625 1.88437,-0.675 3.99375,-1.125 2.12343,-0.45 4.28906,-0.45 5.48437,0 9.04219,1.575 3.55781,1.575 5.58281,4.415625 2.025,2.840625 2.78437,6.848437 0.77344,3.99375 0.77344,8.760938 V 103.53971 H 153.09702 V 78.789706 q 0,-7.382813 -1.8,-10.659375 -1.8,-3.290625 -6.93281,-3.290625 -2.60156,0 -4.95,0.857812 -2.33437,0.857813 -3.50156,1.659375 0.71719,2.25 0.98437,4.78125 0.26719,2.517188 0.26719,5.385938 v 26.015629 h -10.88437 z m 59.58279,0 q 0,6.932812 3.00938,10.125 3.02344,3.192187 7.79062,3.192187 2.60157,0 4.89375,-0.717187 2.30625,-0.717188 3.74063,-1.715625 V 65.289706 q -1.16719,-0.267188 -2.88281,-0.492188 -1.70157,-0.225 -4.31719,-0.225 -5.93438,0 -9.08438,3.923438 -3.15,3.909375 -3.15,10.29375 z m 30.33282,19.982812 q 0,11.250002 -5.72344,16.467192 -5.70938,5.21718 -17.50781,5.21718 -4.31719,0 -8.40938,-0.71718 -4.09219,-0.71719 -7.425,-1.88438 l 1.98281,-9.28125 q 2.78438,1.18125 6.34219,1.89844 3.55781,0.71719 7.69219,0.71719 6.56719,0 9.35156,-2.7 2.79844,-2.7 2.79844,-8.01563 v -1.799999 q -1.61719,0.815625 -4.275,1.631249 -2.65781,0.80156 -6.075,0.80156 -4.5,0 -8.24063,-1.434372 -3.72656,-1.448437 -6.38437,-4.232812 -2.65781,-2.784375 -4.14844,-6.975 -1.47656,-4.190625 -1.47656,-9.675 0,-5.132813 1.575,-9.45 1.575,-4.317188 4.58437,-7.36875 3.02344,-3.065625 7.34063,-4.78125 4.31719,-1.715625 9.81562,-1.715625 5.30157,0 10.06875,0.815625 4.78125,0.815625 8.11407,1.715625 z m 28.15874,6.117192 q -2.41875,0 -4.99219,-0.32344 -2.55937,-0.30938 -4.86562,-0.80156 -2.29219,-0.49219 -4.17657,-1.06875 -1.88437,-0.59063 -2.88281,-1.13907 l 2.16563,-9.267184 q 1.88437,0.9 5.48437,2.025 3.6,1.125 8.91563,1.125 7.10156,0 10.25156,-2.742188 3.15,-2.742187 3.15,-7.340625 0,-2.967187 -1.20938,-4.95 -1.20937,-1.982812 -3.33281,-3.192187 -2.10937,-1.209375 -4.86562,-1.701563 -2.74219,-0.50625 -5.79375,-0.50625 h -3.69844 v -8.817187 h 4.5 q 2.08125,0 4.19062,-0.407813 2.10938,-0.407812 3.825,-1.434375 1.71563,-1.040625 2.78438,-2.742187 1.08281,-1.715625 1.08281,-4.415625 0,-2.165625 -0.81562,-3.684375 -0.80157,-1.532813 -2.10938,-2.517188 -1.30781,-0.998437 -3.02344,-1.448437 -1.70156,-0.45 -3.58593,-0.45 -4.05,0 -7.2,1.223437 -3.15,1.209375 -5.58282,2.742188 l -3.96562,-8.1 q 1.26562,-0.815625 3.06562,-1.715625 1.8,-0.9 4.00782,-1.701563 2.20781,-0.815625 4.725,-1.307812 2.51718,-0.50625 5.30156,-0.50625 5.23125,0 9,1.265625 3.78281,1.265625 6.25781,3.557812 2.475,2.292188 3.68438,5.4 1.22343,3.107813 1.22343,6.792188 0,4.317187 -2.39062,7.748437 -2.37656,3.417188 -6.15938,5.217188 4.86563,1.701562 8.05782,5.667187 3.19218,3.951563 3.19218,10.167188 0,4.134375 -1.44843,7.692187 -1.43438,3.557813 -4.40157,6.13125 -2.96718,2.559377 -7.52343,4.049997 -4.54219,1.47657 -10.84219,1.47657 z m 45.36843,-25.017192 q 0,7.2 3.41718,11.292188 3.41719,4.092187 9.45,4.092187 2.61563,0 4.45781,-0.225 1.84219,-0.225 3.00938,-0.492187 v -27 q -1.43438,-0.984375 -3.825,-1.842188 -2.37656,-0.857812 -5.07656,-0.857812 -5.94844,0 -8.69063,4.05 -2.74218,4.05 -2.74218,10.982812 z m 31.23281,22.232812 q -3.24844,0.98438 -8.15625,1.78594 -4.89375,0.81562 -10.29375,0.81562 -5.58282,0 -9.99844,-1.70156 -4.40156,-1.71562 -7.50938,-4.907812 -3.10781,-3.192187 -4.78125,-7.734375 -1.65937,-4.55625 -1.65937,-10.223437 0,-5.582813 1.39219,-10.125 1.40625,-4.542188 4.10625,-7.776563 2.7,-3.248437 6.56718,-5.00625 3.86719,-1.757812 8.90157,-1.757812 3.43125,0 6.03281,0.815625 2.61562,0.815625 4.5,1.8 V 35.505331 l 10.89844,-1.8 z"
         style="fill:#348abd;stroke-linecap:butt;stroke-linejoin:round"
         id="path22" />
    </g>
  </g>
  <defs
     id="defs30">
    <clipPath
       style="stroke-linecap:butt;stroke-linejoin:round"
       id="p2ba8cafe89">
      <rect
         style="stroke-linecap:butt;stroke-linejoin:round"
         id="rect27"
         y="21.6"
         x="45"
         width="279"
         height="135.89999" />
    </clipPath>
  </defs>
</svg>
